<svg width="120" height="40" viewBox="0 0 120 40" fill="none" xmlns="http://www.w3.org/2000/svg">
  <defs>
    <linearGradient id="bodhiGradient" x1="0%" y1="0%" x2="100%" y2="0%">
      <stop offset="0%" style="stop-color:#4d65ff"/>
      <stop offset="100%" style="stop-color:#69adff"/>
    </linearGradient>
  </defs>
  <!-- Bodhi leaf/lotus icon -->
  <path d="M15 8C15 8 8 15 8 22C8 29 15 32 15 32C15 32 22 29 22 22C22 15 15 8 15 8Z" fill="url(#bodhiGradient)"/>
  <path d="M15 12C15 12 11 17 11 22C11 27 15 29 15 29C15 29 19 27 19 22C19 17 15 12 15 12Z" fill="white" fill-opacity="0.3"/>
  <circle cx="15" cy="20" r="2" fill="white"/>
  <!-- Bodhi text -->
  <text x="30" y="27" font-family="system-ui, -apple-system, sans-serif" font-size="22" font-weight="700" fill="#1a1a2e">bodhi</text>
</svg>
