<svg width="32" height="32" viewBox="0 0 32 32" fill="none" xmlns="http://www.w3.org/2000/svg">
  <defs>
    <linearGradient id="grad" x1="0%" y1="0%" x2="100%" y2="100%">
      <stop offset="0%" style="stop-color:#4d65ff"/>
      <stop offset="100%" style="stop-color:#69adff"/>
    </linearGradient>
  </defs>
  <rect width="32" height="32" rx="8" fill="url(#grad)"/>
  <path d="M16 6C16 6 8 14 8 20C8 26 16 28 16 28C16 28 24 26 24 20C24 14 16 6 16 6Z" fill="white" fill-opacity="0.9"/>
  <path d="M16 10C16 10 11 16 11 20C11 24 16 26 16 26C16 26 21 24 21 20C21 16 16 10 16 10Z" fill="url(#grad)" fill-opacity="0.3"/>
  <circle cx="16" cy="18" r="2.5" fill="white"/>
</svg>
